<?xml version="1.0" encoding="UTF-8"?>
<svg xmlns="http://www.w3.org/2000/svg" viewBox="0 0 24 24" width="32" height="32" fill="#696cff">
  <path d="M19 20H5V21C5 21.6 4.6 22 4 22H3C2.4 22 2 21.6 2 21V12L4.3 5.3C4.5 4.5 5.2 4 6 4H18C18.8 4 19.5 4.5 19.7 5.3L22 12V21C22 21.6 21.6 22 21 22H20C19.4 22 19 21.6 19 21V20ZM6.5 15C7.3 15 8 14.3 8 13.5S7.3 12 6.5 12 5 12.7 5 13.5 5.7 15 6.5 15ZM17.5 15C18.3 15 19 14.3 19 13.5S18.3 12 17.5 12 16 12.7 16 13.5 16.7 15 17.5 15ZM19.1 9.5H4.9L4 7H20L19.1 9.5Z" />
</svg>
